<svg id="Layer_1" data-name="Layer 1" xmlns="http://www.w3.org/2000/svg" viewBox="0 0 1367 1342.21"><defs><style>.cls-1,.cls-2{fill:#333;}.cls-1{stroke:#333;}.cls-1,.cls-2,.cls-22,.cls-3,.cls-45,.cls-46,.cls-8,.cls-9{stroke-miterlimit:10;}.cls-2,.cls-22,.cls-23,.cls-24,.cls-3{stroke:#fff;}.cls-22,.cls-23,.cls-24,.cls-25,.cls-26,.cls-3,.cls-39,.cls-40,.cls-41,.cls-42,.cls-43,.cls-44,.cls-45,.cls-46,.cls-48,.cls-49,.cls-50,.cls-51,.cls-52,.cls-53,.cls-54,.cls-55,.cls-56,.cls-57,.cls-61,.cls-63,.cls-64,.cls-65,.cls-8,.cls-9{fill:none;}.cls-18,.cls-4,.cls-47,.cls-5{fill:#fff;}.cls-5{font-size:18px;}.cls-11,.cls-12,.cls-13,.cls-14,.cls-15,.cls-17,.cls-18,.cls-19,.cls-20,.cls-21,.cls-27,.cls-28,.cls-30,.cls-31,.cls-36,.cls-47,.cls-5,.cls-6,.cls-62,.cls-66{font-family:MyriadPro-Regular, Myriad Pro;}.cls-13,.cls-15,.cls-17,.cls-18,.cls-19,.cls-20,.cls-21,.cls-6{font-size:24px;}.cls-6{fill:#e6e6e6;}.cls-15,.cls-27,.cls-59,.cls-60,.cls-66,.cls-7{fill:#59b500;}.cls-45,.cls-49,.cls-50,.cls-51,.cls-8,.cls-9{stroke:#59b500;}.cls-9{stroke-dasharray:4.09 4.09;}.cls-10,.cls-11,.cls-17,.cls-38,.cls-58{fill:#df6400;}.cls-11{font-size:86.45px;}.cls-12{font-size:14px;}.cls-12,.cls-31,.cls-36{fill:#b3b3b3;}.cls-13{fill:#ccc;}.cls-14{font-size:102.13px;}.cls-14,.cls-21,.cls-28,.cls-30,.cls-62{fill:#00b498;}.cls-16{letter-spacing:-0.01em;}.cls-19{fill:#00b397;}.cls-20{fill:#999;}.cls-22,.cls-24,.cls-61{stroke-dasharray:3.9 3.9;}.cls-23,.cls-24,.cls-25,.cls-26,.cls-39,.cls-40,.cls-41,.cls-42,.cls-43,.cls-44,.cls-45,.cls-46,.cls-50,.cls-51,.cls-52,.cls-53,.cls-54,.cls-55,.cls-56,.cls-57,.cls-61,.cls-63,.cls-64,.cls-65{stroke-linecap:round;}.cls-23,.cls-24,.cls-25,.cls-26,.cls-39,.cls-40,.cls-41,.cls-42,.cls-43,.cls-44,.cls-48,.cls-49,.cls-50,.cls-51,.cls-52,.cls-53,.cls-54,.cls-55,.cls-56,.cls-57,.cls-61,.cls-63,.cls-64,.cls-65{stroke-linejoin:round;}.cls-25,.cls-26{stroke:#b3b3b3;}.cls-26{stroke-dasharray:3.92 3.92;}.cls-27{font-size:165.61px;}.cls-28{font-size:30px;}.cls-29{font-size:36px;}.cls-30{font-size:25.76px;}.cls-31,.cls-38,.cls-47,.cls-58,.cls-62,.cls-66{font-size:21px;}.cls-32{letter-spacing:-0.01em;}.cls-33{letter-spacing:-0.01em;}.cls-34{letter-spacing:0em;}.cls-35{letter-spacing:0em;}.cls-36{font-size:18.4px;}.cls-37{letter-spacing:-0.01em;}.cls-38,.cls-58,.cls-59,.cls-60{font-family:ComicSansMS, Comic Sans MS;}.cls-38{letter-spacing:-0.07em;}.cls-39,.cls-40,.cls-41,.cls-42,.cls-43,.cls-44,.cls-61{stroke:#ccc;}.cls-40{stroke-dasharray:4.01 4.01;}.cls-41{stroke-dasharray:3.95 3.95;}.cls-42{stroke-dasharray:3.99 3.99;}.cls-43{stroke-dasharray:4.01 4.01;}.cls-44{stroke-dasharray:3.99 3.99;}.cls-46,.cls-48{stroke:#df6400;}.cls-48,.cls-49,.cls-63{stroke-dasharray:4;}.cls-51{stroke-dasharray:3.9 3.9;}.cls-52,.cls-53,.cls-54,.cls-55,.cls-56,.cls-57{stroke:#00b397;}.cls-53{stroke-dasharray:4.07 4.07;}.cls-54{stroke-dasharray:3.98 3.98;}.cls-55{stroke-dasharray:4.1 4.1;}.cls-56{stroke-dasharray:3.98 3.98;}.cls-57{stroke-dasharray:3.77 3.77;}.cls-58{letter-spacing:-0.07em;}.cls-59,.cls-60{font-size:21.15px;}.cls-59{letter-spacing:-0.07em;}.cls-60{letter-spacing:-0.07em;}.cls-63,.cls-64,.cls-65{stroke:#00b498;}.cls-65{stroke-dasharray:4.04 4.04;}</style></defs><rect class="cls-1" x="0.5" y="571.5" width="1366" height="768"/><rect class="cls-2" x="1307.5" y="523.5" width="5" height="5"/><circle class="cls-2" cx="290" cy="944" r="156"/><line class="cls-3" x1="134" y1="944" x2="442.44" y2="944"/><path class="cls-4" d="M439.54,372.5A7.33,7.33,0,0,1,438,368a13.72,13.72,0,0,0,5.55,4.54A14.44,14.44,0,0,0,438,377,7.67,7.67,0,0,1,439.54,372.5Z" transform="translate(2.5 571.5)"/><text class="cls-5" transform="translate(440 752.34) rotate(-90)">T<tspan x="7.78" y="0">a</tspan><tspan x="16.48" y="0">n</tspan><tspan x="26.46" y="0">g</tspan><tspan x="36.51" y="0">e</tspan><tspan x="45.55" y="0">n</tspan><tspan x="55.46" y="0">t</tspan><tspan x="61.42" y="0"> </tspan><tspan x="65.24" y="0">(</tspan><tspan x="70.35" y="0">a</tspan><tspan x="79.02" y="0">n</tspan><tspan x="89.02" y="0">g</tspan><tspan x="99.09" y="0">l</tspan><tspan x="103.35" y="0">e</tspan><tspan x="112.34" y="0"> </tspan><tspan x="116.17" y="0">s</tspan><tspan x="123.31" y="0">h</tspan><tspan x="133.28" y="0">a</tspan><tspan x="141.96" y="0">d</tspan><tspan x="152.12" y="0">o</tspan><tspan x="161.88" y="0">w</tspan><tspan x="175.13" y="0">)</tspan></text><line class="cls-4" x1="445" y1="572" x2="445.5" y2="1338.5"/><line class="cls-3" x1="445" y1="575.56" x2="445.5" y2="1338.5"/><path class="cls-4" d="M442.5,4.46A7.37,7.37,0,0,0,447.05,6,13.57,13.57,0,0,1,442.5.5,14.44,14.44,0,0,1,438,6.05,7.58,7.58,0,0,0,442.5,4.46Z" transform="translate(2.5 571.5)"/><text class="cls-6" transform="translate(424.62 876.54)">•</text><line class="cls-7" x1="428.5" y1="872.5" x2="289.5" y2="872.5"/><line class="cls-8" x1="428.5" y1="872.5" x2="426.5" y2="872.5"/><line class="cls-9" x1="422.41" y1="872.5" x2="293.55" y2="872.5"/><line class="cls-8" x1="291.5" y1="872.5" x2="289.5" y2="872.5"/><line class="cls-10" x1="428" y1="942" x2="428" y2="869.5"/><polygon class="cls-10" points="428 942 427.87 940 428.13 940 428 942"/><path class="cls-10" d="M425.15,364.47c0-1.34-.18-2.69-.16-4h1c0,1.34-.11,2.69-.16,4Z" transform="translate(2.5 571.5)"/><rect class="cls-10" x="427.5" y="923.88" width="1" height="4.03"/><rect class="cls-10" x="427.5" y="915.82" width="1" height="4.03"/><rect class="cls-10" x="427.5" y="907.76" width="1" height="4.03"/><rect class="cls-10" x="427.5" y="899.71" width="1" height="4.03"/><rect class="cls-10" x="427.5" y="891.65" width="1" height="4.03"/><rect class="cls-10" x="427.5" y="883.59" width="1" height="4.03"/><path class="cls-10" d="M425,308.06c0-1.34.12-2.69.17-4h.68c.05,1.34.19,2.69.17,4Z" transform="translate(2.5 571.5)"/><polygon class="cls-10" points="427.88 871.5 428 869.5 428.13 871.5 427.88 871.5"/><text class="cls-11" transform="translate(270.05 930.35) scale(0.61 1)">{</text><line class="cls-4" x1="289.5" y1="787.5" x2="289.5" y2="1099.5"/><line class="cls-3" x1="289.5" y1="791.06" x2="289.5" y2="1099.5"/><path class="cls-4" d="M287,220a7.33,7.33,0,0,0,4.54,1.59A13.72,13.72,0,0,1,287,216a14.44,14.44,0,0,1-4.54,5.55A7.67,7.67,0,0,0,287,220Z" transform="translate(2.5 571.5)"/><text class="cls-12" transform="translate(319.66 919.94) rotate(-27.25)">H</text><text class="cls-12" transform="translate(327.88 915.71) rotate(-27.25)">y</text><text class="cls-12" transform="translate(333.75 912.69) rotate(-27.25)">p</text><text class="cls-12" transform="translate(340.81 909.05) rotate(-27.25)">o</text><text class="cls-12" transform="matrix(0.89, -0.46, 0.46, 0.89, 347.64, 905.53)">t</text><text class="cls-12" transform="translate(351.71 903.44) rotate(-27.25)">e</text><text class="cls-12" transform="translate(357.94 900.23) rotate(-27.25)">n</text><text class="cls-12" transform="matrix(0.89, -0.46, 0.46, 0.89, 364.84, 896.68)">u</text><text class="cls-12" transform="translate(371.71 893.13) rotate(-27.25)">s</text><text class="cls-12" transform="translate(376.64 890.6) rotate(-27.25)">e</text><text x="2.5" y="571.5"/><text class="cls-13" transform="translate(441.94 867.54)">•</text><text class="cls-14" transform="translate(449.16 930.51) scale(0.46 1)">}</text><text class="cls-15" transform="translate(334.27 983.19)"><tspan class="cls-16">c</tspan><tspan x="10.61" y="0">osx</tspan></text><text class="cls-17" transform="translate(229.68 911.68)">sinx</text><text class="cls-18" transform="translate(272.25 961.51)">0</text><text class="cls-19" transform="translate(465.35 909.92)">tanx</text><text class="cls-20" transform="translate(323.38 941.94)">)<tspan class="cls-4" x="6.82" y="0">x</tspan></text><text class="cls-17" transform="translate(272.34 808.38)">1</text><text class="cls-17" transform="translate(265.66 1093.9)">-1</text><text class="cls-15" transform="translate(431.66 968.8)">1</text><text class="cls-15" transform="translate(139.8 964.46)">-1</text><text class="cls-21" transform="translate(448.36 795.03)">1</text><text class="cls-21" transform="translate(450.19 1109.03)">-1</text><line class="cls-4" x1="289.5" y1="1099.5" x2="445.5" y2="1099.5"/><line class="cls-3" x1="289.5" y1="1099.5" x2="291.5" y2="1099.5"/><line class="cls-22" x1="295.4" y1="1099.5" x2="441.55" y2="1099.5"/><line class="cls-3" x1="443.5" y1="1099.5" x2="445.5" y2="1099.5"/><line class="cls-4" x1="289.5" y1="787.5" x2="445.5" y2="787.5"/><line class="cls-23" x1="289.5" y1="787.5" x2="291.5" y2="787.5"/><line class="cls-24" x1="295.4" y1="787.5" x2="441.55" y2="787.5"/><line class="cls-23" x1="443.5" y1="787.5" x2="445.5" y2="787.5"/><line class="cls-25" x1="289" y1="944" x2="290.77" y2="943.07"/><line class="cls-26" x1="294.24" y1="941.25" x2="424.49" y2="872.84"/><line class="cls-25" x1="426.23" y1="871.93" x2="428" y2="871"/><text class="cls-27" transform="translate(405.03 965.52) rotate(-90) scale(0.43 1)">{</text><text class="cls-28" transform="translate(450.64 600.36) scale(0.46 1)">+<tspan class="cls-29" x="17.88" y="0">∞</tspan></text><text class="cls-28" transform="translate(450.62 1333.21) scale(0.46 1)">- <tspan class="cls-29" x="15.57" y="0">∞</tspan></text><text class="cls-30" transform="translate(448.23 963.83) scale(0.68 1)">0</text><text class="cls-31" transform="translate(348.48 938.79) scale(0.65 1)"><tspan class="cls-32">A</tspan><tspan x="12.6" y="0">dja</tspan><tspan class="cls-33" x="39.67" y="0">c</tspan><tspan x="48.95" y="0">e</tspan><tspan class="cls-34" x="59.47" y="0">n</tspan><tspan class="cls-35" x="71.04" y="0">t</tspan></text><text class="cls-36" transform="translate(418.45 940.05) rotate(-90) scale(0.85 1)">Opposi<tspan class="cls-37" x="55.31" y="0">t</tspan><tspan x="61.29" y="0">e</tspan></text><circle class="cls-2" cx="777.56" cy="941.18" r="156"/><line class="cls-3" x1="621.56" y1="941.18" x2="930" y2="941.18"/><path class="cls-4" d="M927.09,369.68a7.41,7.41,0,0,1-1.58-4.55,13.53,13.53,0,0,0,5.55,4.55,14.3,14.3,0,0,0-5.55,4.54A7.64,7.64,0,0,1,927.09,369.68Z" transform="translate(2.5 571.5)"/><line class="cls-4" x1="777.06" y1="784.68" x2="777.06" y2="1096.68"/><line class="cls-3" x1="777.06" y1="788.24" x2="777.06" y2="1096.68"/><path class="cls-4" d="M774.56,217.14a7.32,7.32,0,0,0,4.54,1.58,13.62,13.62,0,0,1-4.54-5.54,14.28,14.28,0,0,1-4.55,5.54A7.6,7.6,0,0,0,774.56,217.14Z" transform="translate(2.5 571.5)"/><text class="cls-5" transform="translate(762.81 956.43)">0</text><text class="cls-38" transform="translate(762.89 802.85)">1</text><text class="cls-38" transform="translate(758.22 1096.37)">-1</text><line class="cls-39" x1="667" y1="1052" x2="668.41" y2="1050.59"/><line class="cls-40" x1="671.25" y1="1047.75" x2="885.17" y2="833.83"/><line class="cls-39" x1="886.59" y1="832.41" x2="888" y2="831"/><line class="cls-39" x1="888.18" y1="1051.82" x2="886.76" y2="1050.41"/><line class="cls-40" x1="883.92" y1="1047.58" x2="669.66" y2="834"/><line class="cls-39" x1="668.24" y1="832.59" x2="666.82" y2="831.18"/><line class="cls-39" x1="699.23" y1="1073.76" x2="700.23" y2="1072.03"/><line class="cls-41" x1="702.21" y1="1068.61" x2="851.78" y2="810.68"/><line class="cls-39" x1="852.77" y1="808.97" x2="853.77" y2="807.24"/><line class="cls-39" x1="642.83" y1="1019.25" x2="644.56" y2="1018.25"/><line class="cls-42" x1="648.01" y1="1016.26" x2="908.71" y2="865.74"/><line class="cls-39" x1="910.44" y1="864.75" x2="912.17" y2="863.75"/><line class="cls-39" x1="641.67" y1="863.37" x2="643.4" y2="864.37"/><line class="cls-43" x1="646.87" y1="866.37" x2="908.86" y2="1017.63"/><line class="cls-39" x1="910.6" y1="1018.63" x2="912.33" y2="1019.63"/><line class="cls-39" x1="699.14" y1="808.04" x2="700.14" y2="809.77"/><line class="cls-44" x1="702.14" y1="813.22" x2="853.21" y2="1073.51"/><line class="cls-39" x1="854.21" y1="1075.23" x2="855.22" y2="1076.96"/><line class="cls-45" x1="428" y1="936" x2="420" y2="936"/><line class="cls-46" x1="420" y1="943" x2="420" y2="936"/><text class="cls-47" transform="translate(600.88 946.93) scale(0.69 1)">±π</text><text class="cls-47" transform="translate(908.72 856.59) scale(0.69 1)">π/6</text><text class="cls-47" transform="translate(888.29 827.38) scale(0.69 1)">π/4</text><text class="cls-47" transform="translate(854.29 803.38) scale(0.69 1)">π/3</text><text class="cls-47" transform="translate(768.29 777.66) scale(0.69 1)">π/2</text><text class="cls-47" transform="translate(904.29 1038.09) scale(0.69 1)">-π/6</text><text class="cls-47" transform="translate(880.29 1067.81) scale(0.69 1)">-π/4</text><text class="cls-47" transform="translate(847.86 1093.52) scale(0.69 1)">-π/3</text><text class="cls-47" transform="translate(763.86 1115.95) scale(0.69 1)">-π/2</text><line class="cls-48" x1="667" y1="831" x2="667" y2="1052"/><line class="cls-48" x1="888" y1="831" x2="888" y2="1052"/><line class="cls-48" x1="699" y1="808" x2="699" y2="1074"/><line class="cls-48" x1="854" y1="807" x2="855" y2="1077"/><line class="cls-48" x1="912" y1="864" x2="912" y2="1020"/><line class="cls-48" x1="642" y1="863" x2="643" y2="1019"/><line class="cls-49" x1="912" y1="864" x2="642" y2="863"/><line class="cls-49" x1="667" y1="831" x2="888" y2="831"/><line class="cls-49" x1="854" y1="807" x2="699" y2="808"/><line class="cls-49" x1="643" y1="1019" x2="912" y2="1020"/><line class="cls-49" x1="888" y1="1052" x2="667" y2="1052"/><line class="cls-50" x1="699" y1="1074" x2="701" y2="1074.04"/><line class="cls-51" x1="704.9" y1="1074.11" x2="851.05" y2="1076.92"/><line class="cls-50" x1="853" y1="1076.96" x2="855" y2="1077"/><line class="cls-4" x1="932.64" y1="572.96" x2="933.14" y2="1339.46"/><line class="cls-3" x1="932.64" y1="576.52" x2="933.14" y2="1339.46"/><path class="cls-4" d="M930.14,5.43A7.41,7.41,0,0,0,934.69,7a13.53,13.53,0,0,1-4.55-5.55A14.3,14.3,0,0,1,925.6,7,7.64,7.64,0,0,0,930.14,5.43Z" transform="translate(2.5 571.5)"/><line class="cls-52" x1="854.4" y1="807.63" x2="855.4" y2="805.9"/><line class="cls-53" x1="857.44" y1="802.38" x2="929.97" y2="677.49"/><line class="cls-52" x1="931" y1="675.73" x2="932" y2="674"/><line class="cls-52" x1="887.74" y1="830.76" x2="889.16" y2="829.36"/><line class="cls-54" x1="891.99" y1="826.56" x2="930.16" y2="788.8"/><line class="cls-52" x1="931.58" y1="787.41" x2="933" y2="786"/><line class="cls-52" x1="854.84" y1="1076.25" x2="855.85" y2="1077.98"/><line class="cls-55" x1="857.9" y1="1081.53" x2="930.97" y2="1207.5"/><line class="cls-52" x1="932" y1="1209.27" x2="933" y2="1211"/><line class="cls-52" x1="888" y1="1052" x2="889.41" y2="1053.41"/><line class="cls-56" x1="892.23" y1="1056.23" x2="930.18" y2="1094.18"/><line class="cls-52" x1="931.59" y1="1095.59" x2="933" y2="1097"/><line class="cls-52" x1="912.61" y1="1019.79" x2="914.34" y2="1020.79"/><line class="cls-57" x1="917.6" y1="1022.67" x2="929.03" y2="1029.27"/><line class="cls-52" x1="930.66" y1="1030.21" x2="932.39" y2="1031.21"/><text x="2.5" y="571.5"/><text class="cls-58" transform="translate(756.92 879.21) scale(0.52 1)">1/2</text><text class="cls-58" transform="translate(750.81 848.07) scale(0.52 1)">√2/2</text><text class="cls-58" transform="translate(750.86 824.64) scale(0.52 1)">√3/2</text><text class="cls-58" transform="translate(748.62 1018.36) scale(0.52 1)">- 1/2</text><text class="cls-58" transform="translate(742.86 1073.07) scale(0.52 1)">- √3/2</text><text class="cls-58" transform="translate(742.86 1051.07) scale(0.52 1)">- √2/2</text><text class="cls-59" transform="matrix(0.54, -0.01, -0.02, 1, 853.91, 937.43)">1/2</text><text class="cls-59" transform="matrix(0.54, -0.01, -0.02, 1, 874.81, 964.18)">√2/2</text><text class="cls-59" transform="matrix(0.54, -0.01, -0.02, 1, 899.17, 937.48)">√3/2</text><text class="cls-60" transform="matrix(0.54, -0.01, -0.02, 1, 677.36, 938.18)">-1/2</text><text class="cls-60" transform="matrix(0.54, -0.01, -0.02, 1, 625.48, 939.2)">- √3/2</text><text class="cls-60" transform="matrix(0.54, -0.01, -0.02, 1, 646.66, 963.99)">- √2/2</text><line class="cls-4" x1="777" y1="785" x2="933" y2="785"/><line class="cls-39" x1="777" y1="785" x2="779" y2="785"/><line class="cls-61" x1="782.9" y1="785" x2="929.05" y2="785"/><line class="cls-39" x1="931" y1="785" x2="933" y2="785"/><line class="cls-4" x1="777" y1="1098" x2="933" y2="1098"/><line class="cls-39" x1="777" y1="1098" x2="779" y2="1098"/><line class="cls-61" x1="782.9" y1="1098" x2="929.05" y2="1098"/><line class="cls-39" x1="931" y1="1098" x2="933" y2="1098"/><text class="cls-21" transform="translate(935.71 794.47)">1</text><text class="cls-21" transform="translate(939.03 1103.47)">-1</text><text class="cls-30" transform="translate(939.19 948.99) scale(0.68 1)">0</text><text class="cls-28" transform="translate(939.48 599.85) scale(0.46 1)">+<tspan class="cls-29" x="17.88" y="0">∞</tspan></text><text class="cls-28" transform="translate(939.58 1332.85) scale(0.46 1)">- <tspan class="cls-29" x="15.57" y="0">∞</tspan></text><text class="cls-62" transform="translate(936.07 863.64)">1/√3</text><text class="cls-62" transform="translate(938.87 1035.88)">-1/√3</text><text class="cls-62" transform="translate(938.87 680.88)">√3</text><text class="cls-62" transform="translate(938.87 1218.88)">- √3</text><line class="cls-63" x1="445" y1="861" x2="428" y2="871"/><line class="cls-64" x1="912.03" y1="864.05" x2="913.76" y2="863.05"/><line class="cls-65" x1="917.26" y1="861.03" x2="929.49" y2="853.96"/><line class="cls-64" x1="931.24" y1="852.95" x2="932.97" y2="851.95"/><text class="cls-47" transform="translate(637.4 831.24) scale(0.69 1)">3π/4</text><text class="cls-47" transform="translate(670.4 806.24) scale(0.69 1)">2π/3</text><text class="cls-47" transform="translate(613.4 864.24) scale(0.69 1)">5π/6</text><text class="cls-47" transform="translate(609.61 1035.85) scale(0.69 1)">-5π/6</text><text class="cls-47" transform="translate(633.4 1067.24) scale(0.69 1)">-3π/4</text><text class="cls-47" transform="translate(666.4 1093.24) scale(0.69 1)">-2π/3</text><text class="cls-66" transform="translate(920.28 964.7)">1</text><text class="cls-66" transform="translate(622.6 962.7)">-1</text></svg>