<?xml version="1.0" standalone="no"?>
<!DOCTYPE svg PUBLIC "-//W3C//DTD SVG 20010904//EN"
 "http://www.w3.org/TR/2001/REC-SVG-20010904/DTD/svg10.dtd">
<svg version="1.0" xmlns="http://www.w3.org/2000/svg"
 width="391.000000pt" height="960.000000pt" viewBox="0 0 391.000000 960.000000"
 preserveAspectRatio="xMidYMid meet">

<g transform="translate(0.000000,960.000000) scale(0.100000,-0.100000)"
fill="#000000" stroke="none">
<path d="M1710 9537 c0 -3 26 -24 58 -48 31 -23 52 -36 45 -28 -14 17 -103 83
-103 76z"/>
<path d="M2189 9483 c-13 -16 -12 -17 4 -4 9 7 17 15 17 17 0 8 -8 3 -21 -13z"/>
<path d="M2136 9445 c-11 -8 -15 -15 -9 -15 6 0 16 7 23 15 16 19 11 19 -14 0z"/>
<path d="M1830 9446 c0 -2 12 -12 28 -21 l27 -18 -19 21 c-17 20 -36 29 -36
18z"/>
<path d="M1635 9400 c-4 -23 -5 -43 -2 -46 2 -3 7 14 11 37 4 23 5 44 2 46 -2
2 -7 -14 -11 -37z"/>
<path d="M1894 9403 c5 -9 1 -13 -12 -13 -17 0 -21 -10 -26 -63 -8 -70 7 -186
29 -226 18 -34 19 -17 0 34 -9 25 -14 80 -15 143 l0 102 53 1 c33 1 41 4 22 6
-16 3 -36 10 -44 16 -12 9 -13 9 -7 0z"/>
<path d="M1961 9314 c-48 -115 -65 -233 -31 -217 8 4 41 9 73 11 51 3 68 -1
123 -28 177 -87 312 -263 378 -493 35 -120 46 -193 47 -317 1 -58 4 -94 6 -80
4 22 30 54 112 136 13 13 22 27 19 30 -3 3 -31 -23 -62 -58 l-56 -63 0 55 c-1
91 -18 189 -56 304 -80 250 -207 411 -392 499 -57 26 -71 29 -133 25 l-70 -5
6 41 c4 22 15 69 26 104 17 50 25 62 42 63 17 1 18 2 5 6 -21 5 -22 8 -7 35 6
11 9 22 6 24 -2 2 -18 -30 -36 -72z"/>
<path d="M2064 9368 l-19 -23 23 19 c12 11 22 21 22 23 0 8 -8 2 -26 -19z"/>
<path d="M2371 9330 c0 -8 4 -22 9 -30 12 -18 12 -2 0 25 -6 13 -9 15 -9 5z"/>
<path d="M1621 9268 c-1 -34 -4 -37 -33 -41 l-33 -4 33 -1 c36 -2 46 11 39 55
-3 24 -4 23 -6 -9z"/>
<path d="M2391 9275 c1 -19 18 -51 18 -35 0 8 -4 22 -9 30 -5 8 -9 11 -9 5z"/>
<path d="M1234 9247 c-3 -8 -3 -54 -1 -103 l3 -89 2 97 c2 91 3 97 25 101 l22
4 -23 2 c-12 0 -25 -5 -28 -12z"/>
<path d="M1298 9243 c6 -2 18 -2 25 0 6 3 1 5 -13 5 -14 0 -19 -2 -12 -5z"/>
<path d="M2613 9243 c9 -2 25 -2 35 0 9 3 1 5 -18 5 -19 0 -27 -2 -17 -5z"/>
<path d="M2680 9218 c0 -18 -3 -58 -6 -88 -4 -36 -2 -50 4 -42 10 14 17 162 8
162 -4 0 -6 -15 -6 -32z"/>
<path d="M1353 9233 c9 -2 23 -2 30 0 6 3 -1 5 -18 5 -16 0 -22 -2 -12 -5z"/>
<path d="M2558 9233 c6 -2 18 -2 25 0 6 3 1 5 -13 5 -14 0 -19 -2 -12 -5z"/>
<path d="M1428 9223 c12 -2 32 -2 45 0 12 2 2 4 -23 4 -25 0 -35 -2 -22 -4z"/>
<path d="M2518 9223 c7 -3 16 -2 19 1 4 3 -2 6 -13 5 -11 0 -14 -3 -6 -6z"/>
<path d="M2411 9208 c-1 -24 11 -28 39 -12 14 7 21 13 15 13 -5 1 -17 -4 -25
-9 -11 -7 -17 -5 -22 8 -6 16 -7 16 -7 0z"/>
<path d="M1683 9085 c-71 -22 -127 -61 -198 -137 -144 -156 -223 -419 -207
-692 3 -59 1 -81 -9 -87 -11 -7 -11 -9 3 -9 9 0 18 -4 20 -10 2 -5 3 74 4 178
0 170 2 196 26 282 68 246 197 411 361 461 68 21 116 20 182 -6 13 -5 17 -5
10 2 -31 32 -122 41 -192 18z"/>
<path d="M1241 9004 c0 -11 3 -14 6 -6 3 7 2 16 -1 19 -3 4 -6 -2 -5 -13z"/>
<path d="M1254 8945 c4 -16 7 -35 8 -42 1 -7 5 -10 9 -7 4 2 3 19 -3 37 -15
43 -22 50 -14 12z"/>
<path d="M2623 8923 c-8 -21 -19 -46 -24 -55 -5 -9 -5 -19 -1 -22 5 -3 18 22
30 55 23 65 20 81 -5 22z"/>
<path d="M1220 8880 c-8 -5 -10 -10 -5 -10 6 0 17 5 25 10 8 5 11 10 5 10 -5
0 -17 -5 -25 -10z"/>
<path d="M1068 8833 c7 -3 16 -2 19 1 4 3 -2 6 -13 5 -11 0 -14 -3 -6 -6z"/>
<path d="M2680 8806 c0 -2 7 -7 16 -10 8 -3 12 -2 9 4 -6 10 -25 14 -25 6z"/>
<path d="M2728 8783 c7 -3 16 -2 19 1 4 3 -2 6 -13 5 -11 0 -14 -3 -6 -6z"/>
<path d="M2746 8657 c-15 -40 -38 -90 -52 -110 -13 -20 -21 -37 -16 -37 4 0
18 17 29 38 12 20 30 53 40 72 17 30 38 110 29 110 -2 0 -15 -33 -30 -73z"/>
<path d="M1070 8614 c0 -6 7 -19 16 -30 14 -18 14 -18 3 6 -14 31 -19 36 -19
24z"/>
<path d="M1643 8458 c-87 -133 -114 -178 -223 -368 -39 -69 -76 -128 -82 -131
-5 -4 -3 -9 6 -12 9 -4 16 -2 16 4 0 6 14 -1 31 -15 17 -14 34 -26 39 -26 9 0
40 -85 34 -94 -2 -4 1 -2 7 2 7 6 3 26 -10 63 -11 30 -27 80 -36 111 l-16 57
47 82 48 83 8 -32 c11 -41 30 -53 22 -14 -10 50 48 112 105 112 27 0 78 -45
101 -89 23 -43 26 -26 5 25 -8 19 -15 38 -15 42 -1 4 -15 15 -33 24 -44 24
-102 23 -138 -3 l-29 -20 31 50 c22 35 36 48 48 44 13 -4 13 -3 2 5 -27 19 -2
33 32 16 29 -13 30 -13 13 1 -11 8 -24 15 -29 15 -5 0 -6 7 -3 16 8 21 98 155
102 152 1 -2 18 -44 37 -95 33 -89 99 -194 186 -294 40 -47 45 -43 56 44 6 56
8 59 61 94 30 20 54 38 54 41 0 2 -11 -3 -25 -12 -14 -9 -36 -23 -50 -32 -34
-22 -32 -6 3 24 l27 23 -29 -18 -29 -17 6 24 c3 14 9 59 12 100 4 41 8 81 11
88 4 15 93 -55 119 -94 15 -23 14 -24 -21 -39 -21 -8 -35 -18 -32 -20 3 -3 18
1 34 10 39 20 64 20 38 -1 -19 -15 -18 -15 2 -5 18 9 25 3 59 -41 51 -69 134
-207 141 -235 9 -33 -23 -165 -64 -272 -43 -110 -103 -183 -209 -254 -140 -95
-238 -92 -424 13 -81 45 -133 90 -155 133 -10 18 -22 27 -39 27 -14 0 -25 -4
-25 -8 0 -5 -12 -15 -27 -23 -15 -8 -50 -35 -77 -61 -28 -27 -54 -48 -59 -48
-18 0 -38 -31 -43 -67 -4 -29 3 -54 27 -105 18 -37 34 -66 37 -64 2 2 -11 32
-28 66 -17 34 -29 67 -27 73 6 15 123 -228 224 -463 91 -213 177 -517 212
-755 31 -211 46 -500 46 -880 0 -357 -2 -403 -23 -545 -36 -240 -75 -410 -93
-410 -6 0 -8 8 -5 17 14 35 57 305 76 473 16 143 20 248 21 575 0 232 -4 448
-10 515 -31 312 -112 662 -217 929 -61 156 -166 393 -171 387 -3 -2 1 -14 7
-26 14 -26 17 -22 -45 -45 -122 -44 -251 -123 -326 -198 -24 -24 -102 -125
-173 -223 -71 -98 -157 -216 -190 -261 -34 -45 -103 -150 -154 -235 -51 -84
-118 -185 -147 -223 -108 -139 -128 -173 -133 -224 -5 -53 8 -169 39 -336 40
-224 37 -215 74 -232 20 -10 31 -21 28 -29 -3 -8 0 -14 6 -14 6 0 11 -9 11
-20 0 -11 6 -20 13 -20 9 0 11 -18 9 -65 -4 -69 6 -95 37 -95 10 0 22 -14 30
-36 7 -19 15 -34 17 -32 2 3 -3 23 -12 46 -9 22 -14 48 -10 57 3 9 36 30 73
48 57 26 80 31 146 32 58 0 80 -4 87 -15 8 -13 10 -12 10 3 0 9 5 17 11 17 6
0 9 19 7 48 l-3 47 -70 6 -70 5 61 2 61 2 2 61 c2 58 4 65 46 112 48 53 82
139 71 182 -3 13 -22 40 -42 59 -30 29 -41 34 -65 29 -18 -3 -29 -1 -29 6 0 6
7 11 15 11 29 0 123 48 139 71 9 13 17 46 18 74 1 45 2 46 5 11 l4 -38 45 5
c32 3 42 2 35 -7 -5 -6 -6 -28 -1 -51 10 -55 48 -199 60 -231 7 -17 7 -31 1
-38 -5 -6 -9 -52 -9 -101 0 -50 -7 -130 -16 -180 -18 -99 -14 -205 11 -265 17
-41 59 -88 89 -100 24 -10 144 -144 144 -161 0 -7 -11 -9 -27 -5 -27 6 -27 6
-9 -9 19 -14 19 -15 -6 -15 -16 0 -35 11 -50 28 -31 35 -88 76 -88 62 0 -19
-42 -11 -47 10 -3 11 -9 20 -14 20 -19 0 17 -52 50 -73 53 -32 109 -85 153
-144 21 -29 38 -55 38 -59 0 -3 -12 -4 -27 -1 -24 4 -26 4 -10 -8 27 -19 20
-27 -11 -11 -15 8 -52 40 -82 71 -30 31 -73 66 -95 77 -22 11 -49 28 -59 37
-17 14 -18 15 -10 0 5 -9 37 -41 71 -70 71 -63 183 -193 183 -214 0 -21 -37
-19 -49 3 -6 9 -11 12 -11 5 0 -6 10 -19 22 -27 15 -11 18 -16 8 -16 -9 0 -47
29 -85 65 -38 35 -91 76 -117 90 -59 32 -63 26 -6 -8 57 -34 163 -125 163
-140 0 -7 -10 -11 -25 -9 -19 2 -22 1 -10 -7 8 -5 12 -13 8 -16 -8 -8 -61 19
-113 57 -39 29 -39 29 -10 2 17 -16 29 -36 28 -48 -1 -13 0 -15 3 -5 4 14 9
14 45 -4 37 -18 41 -18 65 -2 14 9 31 14 39 12 7 -3 22 1 34 10 20 13 29 13
99 -6 99 -26 235 -51 278 -51 28 0 35 5 40 25 3 14 13 25 20 25 26 0 49 81 88
315 53 312 59 422 47 810 -10 304 -30 586 -52 735 -6 41 -28 153 -50 248 -31
138 -39 194 -39 272 0 103 5 134 22 124 6 -4 5 3 -2 15 -6 12 -10 45 -8 73 l3
52 79 -105 c90 -118 189 -238 196 -238 8 0 100 116 200 253 l95 129 3 -46 c3
-42 -2 -54 -48 -122 -29 -42 -50 -78 -48 -80 2 -2 24 26 48 63 l45 67 5 -205
c5 -187 3 -213 -17 -296 -55 -232 -83 -517 -83 -859 0 -524 40 -881 131 -1158
23 -69 29 -107 29 -172 0 -89 6 -101 46 -91 25 7 25 8 22 93 l-3 86 170 53
170 54 63 -16 c61 -15 65 -14 98 5 42 25 41 25 47 4 3 -12 5 -8 6 8 1 17 14
38 34 56 17 16 39 38 47 48 8 11 -10 -2 -41 -30 -61 -54 -136 -103 -110 -72 7
9 9 17 3 17 -5 0 -15 -7 -22 -15 -7 -8 -16 -15 -21 -15 -13 0 90 128 151 186
30 29 52 55 49 59 -4 3 -40 -31 -80 -75 -149 -164 -162 -177 -143 -145 l18 30
-26 -24 c-24 -21 -48 -22 -48 -2 0 26 105 176 163 231 37 36 67 71 67 78 0 7
-52 -39 -116 -103 -64 -63 -118 -115 -120 -115 -2 0 0 8 3 18 4 9 -5 4 -19
-13 -22 -24 -29 -28 -40 -17 -10 10 -10 16 0 30 7 9 15 24 18 32 23 59 50 95
131 173 81 79 116 127 93 127 -4 0 -10 -10 -13 -21 -5 -19 -11 -21 -45 -17
-36 5 -40 3 -57 -27 -22 -42 -63 -81 -95 -90 -23 -7 -23 -7 5 19 28 26 29 26
3 11 -35 -21 -46 -3 -19 31 11 14 25 41 31 60 8 24 23 40 50 54 21 11 42 25
46 31 3 6 22 17 40 25 23 10 32 19 28 29 -4 9 0 15 9 15 35 0 32 215 -4 251
-11 11 -19 27 -19 36 0 24 -52 156 -66 168 -9 7 0 54 32 180 24 94 43 184 42
202 -2 24 5 40 26 62 28 29 28 29 6 36 -12 4 -19 9 -17 12 3 2 36 -5 74 -17
39 -12 76 -20 84 -18 11 2 15 -13 17 -64 l3 -68 42 0 c64 0 71 -10 38 -51 -42
-51 -72 -113 -73 -150 -1 -33 0 -34 80 -101 27 -23 32 -33 33 -78 1 -29 -2
-55 -7 -58 -5 -4 -15 -23 -21 -42 -11 -28 -10 -36 1 -42 10 -6 13 -21 10 -50
l-4 -43 13 43 c15 53 36 66 97 59 67 -8 182 -56 188 -79 3 -15 7 -16 19 -6 21
17 43 63 43 89 0 29 22 89 32 89 4 0 8 9 8 21 0 11 4 18 10 14 29 -18 63 115
110 424 l31 204 -28 29 c-15 17 -47 43 -70 59 -27 19 -57 54 -82 97 -21 37
-77 119 -123 181 -45 63 -122 172 -169 242 -207 305 -363 477 -494 546 -75 39
-193 83 -221 83 -8 0 -38 -78 -79 -207 -37 -115 -80 -251 -97 -303 -153 -475
-183 -681 -182 -1265 0 -489 34 -767 127 -1055 50 -154 68 -274 41 -284 -29
-11 -35 5 -34 92 1 67 -4 99 -20 142 -68 172 -112 463 -130 845 -28 613 7 979
136 1415 112 378 278 818 333 879 11 13 21 30 21 38 0 17 -24 43 -40 43 -6 0
-8 5 -4 12 4 6 3 8 -4 4 -6 -3 -17 1 -25 9 -9 8 -23 15 -31 15 -9 0 -16 5 -16
10 0 6 -11 10 -24 10 -14 0 -28 5 -31 10 -3 6 -15 10 -26 10 -10 0 -19 5 -19
10 0 6 -12 10 -26 10 -25 0 -54 20 -54 38 0 5 11 7 24 5 13 -3 26 -1 30 5 3 5
-6 7 -20 4 -24 -4 -26 -2 -19 19 22 69 33 89 61 113 35 28 44 25 63 -28 13
-32 35 -30 37 2 2 20 1 20 -3 2 -2 -11 -7 -20 -11 -19 -4 0 -30 48 -59 107
-99 205 -199 349 -324 467 l-63 60 -7 -30 c-4 -16 -17 -106 -30 -200 -12 -93
-24 -173 -28 -177 -8 -8 -104 113 -153 194 -21 34 -50 99 -65 145 -15 46 -30
83 -34 83 -4 0 -43 -55 -86 -122z m778 -415 c8 -22 6 -30 -12 -49 -12 -13 -24
-22 -26 -20 -5 4 18 96 23 96 3 0 9 -12 15 -27z m-1008 -50 c3 -16 9 -36 12
-45 9 -23 -4 -22 -35 1 -22 18 -23 21 -10 45 17 33 26 33 33 -1z m1175 -382
c-7 -9 -13 -18 -15 -20 -1 -2 -1 5 0 16 0 11 7 20 14 20 10 0 10 -4 1 -16z
m-1218 -31 c0 -5 -7 -10 -16 -10 -8 0 -12 5 -9 10 3 6 10 10 16 10 5 0 9 -4 9
-10z m782 -55 c-4 -50 -1 -75 13 -105 15 -34 16 -45 5 -92 -7 -29 -23 -72 -36
-94 -44 -77 -184 -182 -184 -138 0 23 -31 30 -46 9 -18 -24 -48 -15 -109 32
-61 46 -69 56 -100 115 -27 51 -33 128 -15 203 5 24 5 56 0 80 -5 22 -7 41 -6
43 2 1 30 -11 63 -27 33 -17 89 -38 125 -48 85 -22 154 -8 236 47 31 22 58 40
58 40 1 0 -1 -29 -4 -65z m53 -257 c6 -42 5 -47 -17 -53 -62 -18 -60 -20 -33
33 14 28 25 58 25 68 0 34 18 0 25 -48z m-495 -68 l20 -29 -29 9 c-17 5 -35
11 -41 15 -11 7 -13 54 -4 80 6 14 10 11 20 -15 8 -17 23 -44 34 -60z m506
-15 c3 -14 4 -31 1 -38 -7 -19 -274 -374 -287 -382 -16 -10 -28 3 -160 172
-112 144 -120 157 -120 199 0 24 3 44 8 44 24 -1 94 -30 137 -58 28 -18 60
-35 72 -38 18 -5 23 -15 29 -72 8 -81 19 -112 38 -112 19 0 28 45 25 116 -3
56 -2 56 32 71 19 8 55 32 81 54 40 34 101 65 130 68 4 1 10 -10 14 -24z m155
-92 c-12 -20 -14 -14 -5 12 4 9 9 14 11 11 3 -2 0 -13 -6 -23z m-430 -14 c9
-33 9 -130 0 -153 -16 -41 -37 60 -32 157 1 34 22 32 32 -4z m-1224 -1681 c-3
-7 -5 -2 -5 12 0 14 2 19 5 13 2 -7 2 -19 0 -25z m2747 -63 c-2 -14 0 -25 6
-25 5 0 10 -5 10 -11 0 -8 -5 -8 -15 1 -16 13 -20 42 -8 53 11 11 12 8 7 -18z
m-3117 -37 c-3 -8 -6 -5 -6 6 -1 11 2 17 5 13 3 -3 4 -12 1 -19z m722 -134
c14 -12 -19 -1 -35 12 -18 14 -18 14 6 3 14 -6 27 -13 29 -15z m58 -20 c-3 -3
-12 -4 -19 -1 -8 3 -5 6 6 6 11 1 17 -2 13 -5z m1090 -60 c-3 -3 -12 -4 -19
-1 -8 3 -5 6 6 6 11 1 17 -2 13 -5z m-614 -11 c-7 -2 -19 -2 -25 0 -7 3 -2 5
12 5 14 0 19 -2 13 -5z"/>
<path d="M1143 8516 c27 -25 58 -46 69 -46 18 0 19 -2 7 -17 -13 -16 -12 -17
4 -4 21 16 23 43 3 35 -15 -6 -44 7 -68 28 -8 7 -25 21 -38 32 -14 10 -3 -2
23 -28z"/>
<path d="M2599 8441 c-26 -21 -21 -34 20 -46 16 -5 21 -4 17 4 -4 6 -14 11
-22 11 -18 0 -18 9 3 32 21 24 11 23 -18 -1z"/>
<path d="M1185 8419 c-11 -17 1 -21 15 -4 8 9 8 15 2 15 -6 0 -14 -5 -17 -11z"/>
<path d="M1144 8358 l-19 -23 23 19 c21 18 27 26 19 26 -2 0 -12 -10 -23 -22z"/>
<path d="M1680 8357 c0 -2 18 -17 40 -32 41 -29 48 -46 11 -25 -12 6 -21 9
-21 7 0 -7 102 -68 107 -64 5 5 -93 94 -119 108 -10 5 -18 8 -18 6z"/>
<path d="M1631 8346 c10 -9 69 -36 69 -32 0 6 -55 36 -66 36 -4 0 -5 -2 -3 -4z"/>
<path d="M2125 8314 c-21 -7 -48 -23 -59 -35 -21 -23 -21 -23 0 -6 31 25 34
21 13 -20 -10 -21 -19 -49 -18 -63 0 -20 3 -17 16 17 15 44 63 93 91 93 26 0
102 -41 112 -61 13 -23 -14 -93 -43 -114 -12 -8 -16 -15 -10 -15 18 0 62 63
69 99 14 68 -91 133 -171 105z"/>
<path d="M1070 8303 c0 -6 8 -17 18 -24 16 -13 16 -13 2 6 -8 11 -16 22 -17
24 -2 2 -3 0 -3 -6z"/>
<path d="M2127 8262 c-21 -23 -22 -91 -3 -117 21 -29 74 -24 103 9 12 15 23
36 23 47 0 23 -18 61 -34 71 -21 14 -73 8 -89 -10z m83 -41 c26 -49 8 -81 -45
-81 -28 0 -31 4 -40 52 -6 33 -5 37 17 41 46 9 57 7 68 -12z"/>
<path d="M2153 8208 c2 -7 10 -13 17 -13 7 0 15 6 18 13 2 7 -5 12 -18 12 -13
0 -20 -5 -17 -12z"/>
<path d="M1610 8257 c-50 -25 -47 -115 5 -139 22 -10 30 -8 53 9 48 36 46 109
-4 132 -30 13 -24 13 -54 -2z m63 -61 c4 -6 6 -22 5 -36 -3 -20 -9 -26 -36
-28 -24 -2 -34 1 -38 15 -3 10 -10 26 -15 36 -5 10 -7 22 -4 27 7 11 78 0 88
-14z"/>
<path d="M1620 8185 c0 -8 7 -15 15 -15 8 0 15 7 15 15 0 8 -7 15 -15 15 -8 0
-15 -7 -15 -15z"/>
<path d="M1740 8245 c7 -8 17 -15 22 -15 6 0 5 7 -2 15 -7 8 -17 15 -22 15 -6
0 -5 -7 2 -15z"/>
<path d="M1110 8246 c0 -2 14 -14 30 -26 17 -12 30 -19 30 -16 0 2 -13 14 -30
26 -16 12 -30 19 -30 16z"/>
<path d="M1228 8173 c7 -3 16 -2 19 1 4 3 -2 6 -13 5 -11 0 -14 -3 -6 -6z"/>
<path d="M2542 8125 c0 -16 2 -22 5 -12 2 9 2 23 0 30 -3 6 -5 -1 -5 -18z"/>
<path d="M1540 8126 c0 -2 8 -10 18 -17 15 -13 16 -12 3 4 -13 16 -21 21 -21
13z"/>
<path d="M1618 8093 c6 -2 18 -2 25 0 6 3 1 5 -13 5 -14 0 -19 -2 -12 -5z"/>
<path d="M1311 8039 c0 -13 4 -33 9 -44 7 -14 8 -8 3 20 -7 46 -13 59 -12 24z"/>
<path d="M2265 8050 c-17 -7 -15 -9 13 -9 17 -1 32 4 32 9 0 12 -17 12 -45 0z"/>
<path d="M1490 8013 c0 -5 18 -8 40 -8 22 0 40 3 40 8 0 4 -18 7 -40 7 -22 0
-40 -3 -40 -7z"/>
<path d="M1940 7970 c0 -5 5 -10 10 -10 6 0 10 5 10 10 0 6 -4 10 -10 10 -5 0
-10 -4 -10 -10z"/>
<path d="M2427 7928 l-17 -43 20 25 c17 21 27 60 17 60 -2 0 -11 -19 -20 -42z"/>
<path d="M2251 7936 c11 -9 69 -15 64 -6 -3 6 -20 10 -37 10 -17 0 -29 -2 -27
-4z"/>
<path d="M1541 7914 c-19 -8 -32 -16 -29 -19 6 -7 68 18 68 27 0 10 2 10 -39
-8z"/>
<path d="M1370 7906 c0 -12 39 -84 49 -91 6 -3 -2 16 -16 42 -30 55 -33 59
-33 49z"/>
<path d="M2000 7885 c-52 -13 -87 -24 -77 -24 10 -1 61 9 113 21 89 20 96 21
112 5 23 -24 7 -47 -49 -70 l-44 -18 40 7 c22 3 44 6 49 7 6 1 11 -5 13 -14 6
-24 -66 -66 -154 -90 -105 -29 -208 -24 -287 15 -66 32 -75 57 -18 50 l37 -4
-34 13 c-39 15 -51 35 -30 48 11 7 10 9 -3 9 -23 0 -34 -44 -19 -76 7 -16 33
-35 69 -52 50 -24 69 -27 157 -27 117 0 207 26 268 76 44 36 50 80 16 123 -24
31 -34 31 -159 1z"/>
<path d="M1848 7853 c12 -2 30 -2 40 0 9 3 -1 5 -23 4 -22 0 -30 -2 -17 -4z"/>
<path d="M1728 7843 c18 -2 45 -2 60 0 15 2 0 4 -33 4 -33 0 -45 -2 -27 -4z"/>
<path d="M2606 7583 c-6 -14 -5 -15 5 -6 7 7 10 15 7 18 -3 3 -9 -2 -12 -12z"/>
<path d="M2556 7485 c-9 -26 -7 -32 5 -12 6 10 9 21 6 23 -2 3 -7 -2 -11 -11z"/>
<path d="M2532 7425 c-17 -37 -14 -45 4 -12 9 16 14 31 11 33 -2 2 -9 -7 -15
-21z"/>
<path d="M1726 6838 c54 -105 165 -243 188 -235 10 3 52 54 108 131 45 60 -1
14 -52 -54 -30 -38 -57 -70 -61 -70 -15 0 -93 98 -142 178 -51 84 -71 107 -41
50z"/>
<path d="M3436 5235 c-9 -26 -7 -32 5 -12 6 10 9 21 6 23 -2 3 -7 -2 -11 -11z"/>
<path d="M3134 5223 c-3 -10 -10 -28 -15 -40 -5 -13 -5 -23 0 -23 5 0 13 18
19 40 10 39 7 57 -4 23z"/>
<path d="M3401 5143 c-1 -6 -4 -20 -7 -30 -5 -17 -5 -17 6 0 6 10 9 23 6 30
-3 9 -5 9 -5 0z"/>
<path d="M751 5110 c0 -8 4 -24 9 -35 5 -13 9 -14 9 -5 0 8 -4 24 -9 35 -5 13
-9 14 -9 5z"/>
<path d="M3090 5105 c0 -8 2 -15 4 -15 2 0 6 7 10 15 3 8 1 15 -4 15 -6 0 -10
-7 -10 -15z"/>
<path d="M3376 5075 c-9 -26 -7 -32 5 -12 6 10 9 21 6 23 -2 3 -7 -2 -11 -11z"/>
<path d="M2884 5031 c20 -22 26 -25 26 -13 0 4 -10 13 -22 21 -23 14 -23 14
-4 -8z"/>
<path d="M3061 5020 l-10 -31 62 2 61 2 50 -54 c50 -55 53 -51 8 9 -36 47 -73
64 -123 56 -41 -7 -42 -7 -35 19 9 37 0 34 -13 -3z"/>
<path d="M450 5001 c0 -6 4 -13 10 -16 6 -3 7 1 4 9 -7 18 -14 21 -14 7z"/>
<path d="M2940 5000 c0 -6 7 -10 15 -10 8 0 15 2 15 4 0 2 -7 6 -15 10 -8 3
-15 1 -15 -4z"/>
<path d="M3336 4975 c-9 -26 -7 -32 5 -12 6 10 9 21 6 23 -2 3 -7 -2 -11 -11z"/>
<path d="M470 4966 c0 -11 30 -66 36 -66 2 0 -3 15 -12 33 -19 36 -24 44 -24
33z"/>
<path d="M1035 4940 c-13 -6 -15 -9 -5 -9 8 0 22 4 30 9 18 12 2 12 -25 0z"/>
<path d="M777 4927 c-46 -12 -89 -48 -116 -98 -26 -48 -20 -44 23 14 47 64 66
71 200 77 l121 5 -98 5 c-54 3 -112 1 -130 -3z"/>
<path d="M3316 4925 c-9 -26 -7 -32 5 -12 6 10 9 21 6 23 -2 3 -7 -2 -11 -11z"/>
<path d="M3292 4845 c0 -16 2 -22 5 -12 2 9 2 23 0 30 -3 6 -5 -1 -5 -18z"/>
<path d="M530 4851 c0 -6 4 -13 10 -16 6 -3 7 1 4 9 -7 18 -14 21 -14 7z"/>
<path d="M550 4816 c0 -11 30 -66 36 -66 2 0 -3 15 -12 33 -19 36 -24 44 -24
33z"/>
<path d="M3265 4790 c-10 -11 -14 -20 -9 -20 5 0 15 9 22 20 7 11 11 20 9 20
-2 0 -12 -9 -22 -20z"/>
<path d="M3214 4738 l-19 -23 23 19 c21 18 27 26 19 26 -2 0 -12 -10 -23 -22z"/>
<path d="M610 4694 c0 -5 7 -18 15 -28 8 -11 15 -16 15 -10 0 5 -7 18 -15 28
-8 11 -15 16 -15 10z"/>
<path d="M3093 4676 c-48 -13 -73 -31 -28 -20 42 10 75 23 75 29 0 3 -1 4 -2
4 -2 -1 -22 -7 -45 -13z"/>
<path d="M686 4605 c10 -8 23 -15 28 -15 6 0 1 7 -10 15 -10 8 -23 15 -28 15
-6 0 -1 -7 10 -15z"/>
<path d="M773 4573 c9 -2 23 -2 30 0 6 3 -1 5 -18 5 -16 0 -22 -2 -12 -5z"/>
<path d="M900 4543 c8 -3 23 -12 33 -21 21 -19 23 -9 1 12 -8 9 -23 16 -32 15
-14 0 -14 -2 -2 -6z"/>
<path d="M2903 4380 c0 -41 2 -58 4 -37 2 20 2 54 0 75 -2 20 -4 3 -4 -38z"/>
<path d="M1003 4355 c0 -27 2 -38 4 -22 2 15 2 37 0 50 -2 12 -4 0 -4 -28z"/>
<path d="M993 4255 c0 -27 2 -38 4 -22 2 15 2 37 0 50 -2 12 -4 0 -4 -28z"/>
<path d="M983 4000 c0 -41 2 -58 4 -37 2 20 2 54 0 75 -2 20 -4 3 -4 -38z"/>
<path d="M2750 3934 c-77 -19 -371 -51 -589 -65 -113 -7 -329 -9 -560 -6 -329
4 -433 11 -528 32 -22 5 -23 3 -23 -64 0 -82 14 -121 44 -121 15 0 17 -3 8 -9
-7 -4 84 -11 205 -14 379 -12 576 -26 591 -45 6 -9 12 -11 12 -5 0 7 -5 15
-10 18 -6 3 4 18 21 33 31 25 31 27 26 94 -3 37 -2 68 2 68 4 0 13 -55 19
-122 16 -164 55 -351 98 -462 32 -85 35 -101 39 -232 5 -154 17 -242 70 -503
68 -338 69 -342 69 -574 1 -242 0 -237 69 -237 26 0 37 -4 37 -15 0 -8 5 -15
10 -15 6 0 10 -9 10 -20 0 -11 5 -20 10 -20 6 0 10 -30 10 -69 0 -52 4 -70 15
-75 8 -3 15 -13 15 -23 0 -15 1 -15 13 -1 10 13 45 17 184 22 l172 6 4 -37 4
-38 1 43 c1 24 9 50 17 58 9 10 15 34 15 65 0 44 -2 49 -22 49 -14 0 -18 3
-11 8 6 4 15 32 19 62 5 41 14 60 35 79 40 38 52 98 34 186 -42 208 -79 476
-67 484 10 7 42 129 42 161 0 13 -13 28 -35 41 -19 12 -35 22 -35 24 0 1 9 22
19 46 15 34 21 88 30 244 12 213 31 733 31 851 0 104 -22 122 -120 98z m-23
-2160 c-3 -3 -12 -4 -19 -1 -8 3 -5 6 6 6 11 1 17 -2 13 -5z m-320 -60 c-3 -3
-12 -4 -19 -1 -8 3 -5 6 6 6 11 1 17 -2 13 -5z m26 -121 c-12 -2 -24 -12 -26
-21 -3 -12 -5 -10 -6 6 -1 18 4 22 27 21 22 -1 23 -2 5 -6z"/>
<path d="M873 3690 c-22 -9 -23 -15 -23 -106 0 -78 3 -95 14 -91 12 5 14 -43
13 -316 l-2 -322 85 0 85 0 -1 153 -2 152 133 0 c196 0 515 -24 628 -46 24 -5
28 -10 24 -30 -2 -13 -1 -21 3 -19 4 3 7 35 7 72 0 40 -2 51 -4 27 l-4 -40
-92 12 c-165 22 -345 34 -523 34 l-174 0 0 24 c0 22 6 26 48 33 53 8 516 11
662 3 l94 -5 9 38 c6 26 6 42 -1 49 -7 7 -7 19 -2 34 5 12 11 45 14 72 l4 50
-111 13 c-70 8 -223 12 -404 11 l-293 -1 0 46 0 45 358 -6 c196 -3 383 -9 415
-14 55 -8 58 -7 63 15 4 13 4 27 0 30 -3 4 -6 -4 -6 -17 0 -21 -3 -22 -42 -17
-110 15 -460 29 -615 25 l-173 -5 0 43 c0 33 -5 46 -19 54 -24 12 -137 12
-168 0z m871 -377 l108 -6 -7 -36 c-4 -20 -8 -36 -8 -37 -1 -1 -38 3 -82 7
-113 13 -459 16 -592 6 l-113 -9 0 41 0 41 293 0 c162 0 342 -3 401 -7z"/>
<path d="M1881 3524 c0 -11 3 -14 6 -6 3 7 2 16 -1 19 -3 4 -6 -2 -5 -13z"/>
<path d="M1160 3050 c-69 -3 -93 -7 -70 -11 l35 -6 -34 -1 -34 -2 7 -112 c15
-246 60 -564 96 -688 12 -42 13 -60 1 -42 -17 27 -112 -445 -97 -483 4 -10 20
-15 49 -15 l44 0 7 -47 c3 -27 8 -102 11 -167 5 -121 15 -173 15 -76 l0 53 38
-7 c20 -3 99 -6 176 -6 l138 0 -5 -92 -5 -93 10 95 c8 71 16 99 30 111 13 12
18 30 18 67 0 28 4 54 10 57 5 3 10 24 10 46 0 33 -3 39 -22 40 -13 1 8 5 45
10 37 4 75 13 84 21 44 36 50 111 23 328 -14 113 -20 261 -10 255 20 -12 76
438 82 660 l3 110 -275 1 c-151 0 -322 -2 -380 -6z m50 -1404 c0 -11 -19 -15
-25 -6 -3 5 1 10 9 10 9 0 16 -2 16 -4z m340 -6 c0 -5 -4 -10 -10 -10 -5 0
-10 5 -10 10 0 6 5 10 10 10 6 0 10 -4 10 -10z m10 -117 c-8 -3 -18 -11 -22
-17 -5 -7 -8 -4 -8 7 0 11 7 17 23 16 15 0 17 -2 7 -6z m-277 -60 c-7 -2 -21
-2 -30 0 -10 3 -4 5 12 5 17 0 24 -2 18 -5z m274 1 c-3 -3 -12 -4 -19 -1 -8 3
-5 6 6 6 11 1 17 -2 13 -5z"/>
<path d="M2433 1410 c0 -25 2 -35 4 -22 2 12 2 32 0 45 -2 12 -4 2 -4 -23z"/>
<path d="M2783 1320 c0 -25 2 -35 4 -22 2 12 2 32 0 45 -2 12 -4 2 -4 -23z"/>
<path d="M2442 1320 c0 -19 2 -27 5 -17 2 9 2 25 0 35 -3 9 -5 1 -5 -18z"/>
<path d="M1191 1264 c1 -21 5 -52 9 -69 5 -19 6 -6 3 35 -6 73 -14 94 -12 34z"/>
<path d="M1524 1125 c0 -71 1 -99 3 -62 2 37 2 96 0 130 -2 34 -3 4 -3 -68z"/>
<path d="M2772 1225 c0 -16 2 -22 5 -12 2 9 2 23 0 30 -3 6 -5 -1 -5 -18z"/>
<path d="M2453 1205 c0 -22 2 -30 4 -17 2 12 2 30 0 40 -3 9 -5 -1 -4 -23z"/>
<path d="M1212 1140 c0 -14 2 -19 5 -12 2 6 2 18 0 25 -3 6 -5 1 -5 -13z"/>
<path d="M2755 1090 c-4 -39 -5 -73 -2 -76 2 -3 8 27 11 67 4 39 5 73 3 76 -3
2 -8 -28 -12 -67z"/>
<path d="M1221 1094 c0 -11 3 -14 6 -6 3 7 2 16 -1 19 -3 4 -6 -2 -5 -13z"/>
<path d="M2463 1010 c0 -47 2 -66 4 -42 2 23 2 61 0 85 -2 23 -4 4 -4 -43z"/>
<path d="M1232 1040 c0 -14 2 -19 5 -12 2 6 2 18 0 25 -3 6 -5 1 -5 -13z"/>
<path d="M1242 960 c0 -19 2 -27 5 -17 2 9 2 25 0 35 -3 9 -5 1 -5 -18z"/>
<path d="M1532 965 c0 -16 2 -22 5 -12 2 9 2 23 0 30 -3 6 -5 -1 -5 -18z"/>
<path d="M2750 954 c0 -10 5 -26 10 -34 8 -11 9 -7 4 15 -8 37 -14 45 -14 19z"/>
<path d="M1542 910 c0 -14 2 -19 5 -12 2 6 2 18 0 25 -3 6 -5 1 -5 -13z"/>
<path d="M2451 894 c0 -11 3 -14 6 -6 3 7 2 16 -1 19 -3 4 -6 -2 -5 -13z"/>
<path d="M1231 874 c0 -11 3 -14 6 -6 3 7 2 16 -1 19 -3 4 -6 -2 -5 -13z"/>
<path d="M2792 835 c0 -16 2 -22 5 -12 2 9 2 23 0 30 -3 6 -5 -1 -5 -18z"/>
<path d="M2731 843 c0 -4 4 -17 9 -28 8 -19 9 -19 9 2 1 12 -3 25 -9 28 -5 3
-10 3 -9 -2z"/>
<path d="M1571 804 c0 -11 3 -14 6 -6 3 7 2 16 -1 19 -3 4 -6 -2 -5 -13z"/>
<path d="M1211 794 c0 -11 3 -14 6 -6 3 7 2 16 -1 19 -3 4 -6 -2 -5 -13z"/>
<path d="M2451 790 c0 -8 6 -26 14 -40 7 -14 11 -38 9 -55 -4 -28 -4 -29 7 -8
10 18 8 31 -9 70 -12 26 -21 41 -21 33z"/>
<path d="M2742 775 c-11 -12 -10 -15 3 -15 8 0 15 7 15 15 0 18 -2 18 -18 0z"/>
<path d="M1571 754 c0 -11 3 -14 6 -6 3 7 2 16 -1 19 -3 4 -6 -2 -5 -13z"/>
<path d="M2628 742 c-13 -9 -47 -37 -76 -64 -49 -43 -69 -54 -96 -49 -12 3 0
-223 14 -249 8 -15 8 -20 -1 -20 -6 0 13 -24 42 -54 36 -36 67 -58 94 -65 57
-15 266 -3 342 20 31 10 54 39 30 39 -8 0 -6 4 3 10 13 8 12 10 -2 10 -10 0
-18 7 -18 15 0 8 9 15 20 15 25 0 26 13 3 31 -16 13 -17 12 -4 -3 12 -16 11
-18 -8 -18 -11 0 -21 6 -21 13 0 15 -59 71 -67 64 -2 -3 7 -13 20 -22 14 -9
30 -30 36 -46 9 -25 8 -29 -9 -29 -22 0 -50 25 -50 45 0 8 -13 21 -30 30 -16
9 -30 20 -30 25 0 6 -6 10 -12 10 -7 -1 3 -15 23 -33 33 -28 59 -65 59 -81 0
-10 -40 -7 -61 4 -10 6 -19 17 -19 24 0 15 -68 71 -77 63 -3 -3 11 -16 31 -29
54 -35 61 -96 9 -83 -17 4 -23 2 -18 -6 4 -6 18 -9 31 -6 29 5 32 -9 4 -18
-36 -11 -54 5 -89 76 -18 38 -36 68 -38 65 -3 -3 1 -16 9 -28 23 -36 28 -68
12 -75 -8 -3 -21 0 -29 7 -10 8 -15 9 -15 1 0 -11 39 -24 57 -19 11 3 13 -1
13 -22 0 -15 -77 -12 -92 4 -8 8 -23 15 -34 18 -30 5 -31 68 -1 96 40 38 132
64 217 62 121 -4 130 0 91 39 -11 11 -16 21 -11 23 11 4 -32 139 -56 171 -10
15 -26 27 -34 27 -9 0 -20 4 -25 9 -19 17 -113 19 -137 3z m319 -427 c-5 -16
-37 -18 -37 -3 0 8 9 14 20 14 11 0 19 -5 17 -11z m-60 -13 c-10 -9 -24 -12
-41 -8 -39 10 -31 21 15 22 36 1 39 0 26 -14z"/>
<path d="M1270 711 c-23 -45 -46 -53 -53 -18 l-4 22 -2 -23 c0 -12 5 -25 13
-28 11 -4 9 -14 -10 -47 -13 -23 -24 -50 -24 -59 0 -9 -9 -37 -19 -62 -14 -32
-16 -46 -8 -50 7 -3 6 -5 -3 -5 -17 -1 -55 -40 -47 -48 3 -2 63 -5 134 -6 143
-2 167 -10 204 -70 23 -38 21 -60 -6 -66 -11 -2 -35 -14 -55 -27 -38 -27 -82
-31 -99 -11 -15 19 -4 27 35 27 18 0 35 3 38 8 2 4 -13 6 -35 4 l-38 -4 16 33
c9 19 25 44 36 56 11 13 18 25 15 28 -9 9 -53 -56 -74 -108 -21 -53 -44 -72
-74 -62 -25 8 -26 25 -1 25 10 0 25 8 32 18 11 14 11 15 -1 5 -45 -40 -47 17
-3 70 12 16 23 33 23 39 0 21 -50 -52 -67 -98 -16 -43 -22 -49 -51 -52 -18 -2
-32 1 -32 7 0 6 9 11 19 11 11 0 22 4 25 9 4 5 -4 7 -15 4 -20 -6 -21 -3 -15
23 4 16 18 46 32 66 30 47 31 58 1 21 -13 -15 -32 -50 -43 -76 -20 -51 -42
-71 -68 -61 -20 8 -21 24 -2 24 8 0 17 4 20 9 4 5 -3 7 -14 4 -20 -5 -20 -5 2
33 13 22 34 49 48 62 21 18 22 21 5 15 -18 -6 -19 -5 -5 13 14 19 14 19 -7 0
-13 -10 -20 -22 -18 -26 3 -4 -2 -13 -10 -20 -8 -7 -15 -18 -15 -25 0 -16 -30
-42 -55 -48 -18 -4 -18 -5 3 -6 27 -1 29 -18 2 -23 -18 -3 -18 -5 -3 -35 25
-53 103 -64 283 -41 139 18 153 24 224 100 45 47 66 78 67 96 6 98 7 232 2
262 -6 32 -7 33 -15 11 -11 -31 -45 -23 -120 29 -50 35 -64 40 -113 40 -60 0
-63 4 -39 38 9 13 14 26 11 29 -3 3 -15 -13 -27 -36z"/>
<path d="M1536 645 c-4 -15 -5 -30 -1 -33 3 -3 5 2 5 11 0 8 6 17 13 20 9 3 9
8 1 16 -9 10 -13 6 -18 -14z"/>
<path d="M2945 430 c10 -11 20 -20 23 -20 3 0 -3 9 -13 20 -10 11 -20 20 -23
20 -3 0 3 -9 13 -20z"/>
<path d="M1020 315 c-7 -9 -11 -17 -9 -20 3 -2 10 5 17 15 14 24 10 26 -8 5z"/>
</g>
</svg>
